<svg xmlns="http://www.w3.org/2000/svg" enable-background="new 0 0 64 64" viewBox="0 0 64 64"><path fill="#2b2e63" d="M51.5,12.4c-0.2-0.1-4.5-1.6-8.3,0.1c-3.1,1.4-4.7,4.5-5.3,5.7c-1.6,0.4-3.2,1.3-4.4,2.5c0-2.1-0.2-3.8-0.6-5.3c0.4-1.1,1.6-5.2,0-8.9c-1.8-4.3-6.5-6.3-6.7-6.4C26,0,25.7,0,25.5,0.1S25.1,0.4,25,0.6c-0.1,0.2-1.9,4.9-0.2,9.2c1.5,3.5,5,5.5,6.2,6.1c0.5,1.9,0.7,4.3,0.4,7.5c-0.1,0.8-0.1,1.7-0.2,2.5c-1.2-1.4-2.6-2.7-4.1-3.5c-0.5-1.1-2.4-4.6-5.8-6.1c-4-1.7-8.6,0-8.7,0c-0.3,0.1-0.4,0.3-0.5,0.5c-0.1,0.2-0.1,0.5,0,0.8c0.1,0.2,1.9,4.7,5.9,6.4c1.4,0.6,2.8,0.8,4.1,0.8c1.9,0,3.6-0.4,4.3-0.7c1.7,0.8,3.3,2.7,4.6,4.3c-0.1,0.7-0.2,1.4-0.3,2c-0.4,0.2-0.8,0.4-1.1,0.5c-0.4,0.2-0.8,0.3-1.2,0.4c-0.7,0.1-1.4-0.1-1.9-0.5c-0.3-0.3-0.8-0.3-1.2,0c-0.3,0.3-0.5,0.7-0.3,1.1l2.4,5.8c-3.5,2.6-9.1,9.6-9.2,15.7c0,0.8-0.2,7.8,9.2,9.9c1.2,0.3,2.5,0.4,3.8,0.4c1.3,0,2.6-0.1,3.8-0.4c8.6-1.8,9.2-7.9,9.2-9.5c0-0.2,0-0.4,0-0.4c0-6.1-5.6-13.1-9.1-15.7l2.4-5.6c0.2-0.5,0-1-0.4-1.2c-0.6-0.4-1.9-1-3.6-1.1c-0.3,0-0.6,0-0.9,0c0.3-1.8,0.6-4.1,0.8-6.2c1.2-2,3.2-3.4,5.3-3.8c0.6,0.2,2.2,0.6,4,0.6c1.2,0,2.6-0.2,3.9-0.8c3.8-1.7,5.4-6,5.5-6.2C52.2,13.1,52,12.6,51.5,12.4z M18.7,22.4c-2.3-1-3.7-3.1-4.5-4.4c1.4-0.4,4-0.7,6.3,0.2c2.3,1,3.7,3.1,4.4,4.4C23.5,23,21,23.4,18.7,22.4z M31.3,13.9c-1.3-0.7-3.6-2.3-4.7-4.8c-1-2.5-0.5-5.2-0.2-6.7c1.3,0.7,3.6,2.4,4.7,4.8C32.1,9.7,31.7,12.4,31.3,13.9z M42.2,53.8v0.1c0,0.3,0.6,6.1-7.6,7.8c-2.2,0.5-4.6,0.5-6.9,0c-8.2-1.8-7.7-7.6-7.7-7.8c0,0,0-0.1,0-0.1c0-5.4,5.5-12.3,8.7-14.4h4.7C36.7,41.5,42.2,48.3,42.2,53.8z M33.3,31.9c0.8,0.1,1.5,0.3,2,0.5l-2.1,4.9h-4l-1.6-3.9c0.3,0,0.6,0,0.9,0c0.7-0.1,1.3-0.3,1.9-0.6C31.5,32.2,32.6,31.9,33.3,31.9z M45.8,18.1c-2.1,0.9-4.4,0.6-5.8,0.3c0.6-1.2,1.9-3.2,4-4.1c2.1-0.9,4.4-0.6,5.8-0.3C49.2,15.1,47.9,17.1,45.8,18.1z"/><path fill="#ffdc7c" d="M35.3,32.5l-2.1,4.9h-4l-1.6-3.9c0.3,0,0.6,0,0.9,0c0.7-0.1,1.3-0.3,1.9-0.6c1.2-0.6,2.3-1,2.9-0.9C34.1,32,34.8,32.3,35.3,32.5z"/><path fill="#ecc25d" d="M35.3,32.5l-2.1,4.9h-0.8l1.5-4.3c-0.3-0.1-0.6-0.1-0.8-0.1c-0.4,0-1.2,0.2-2.3,0.8c-0.6,0.3-1.2,0.5-1.8,0.6l1.2,3h-1l-1.6-3.9c0.3,0,0.6,0,0.9,0c0.7-0.1,1.3-0.3,1.9-0.6c1.2-0.6,2.3-1,2.9-0.9C34.1,32,34.8,32.3,35.3,32.5z"/><path fill="#f26e61" d="M42.2,53.9v-0.1c0-5.4-5.5-12.3-8.7-14.4h-4.7c-3.2,2.2-8.7,9-8.7,14.4c0,0,0,0.1,0,0.1c0,0.3-0.5,6.1,7.7,7.8c2.2,0.5,4.6,0.5,6.9,0C42.8,59.9,42.3,54.1,42.2,53.9z M29.4,48.9c0.1,0.2,0.3,0.4,0.6,0.6c0.3,0.2,0.6,0.2,1.1,0.3c0.2,0,0.5,0,0.7,0.1c1.4,0.3,2.5,1,2.9,2c0.4,1,0.3,2.1-0.3,2.9c-0.5,0.8-1.4,1.3-2.3,1.5v1.3c0,0.5-0.4,1-1,1c-0.5,0-1-0.4-1-1v-1.3c-1.6-0.4-3-1.6-2.9-3.4c0-0.5,0.5-1,1-0.9c0.5,0,1,0.5,0.9,1c0,1,1.1,1.5,1.9,1.5c0,0,0,0,0,0h0c0.6,0,1.3-0.3,1.6-0.8c0.2-0.3,0.3-0.7,0.1-1.1c-0.2-0.5-0.9-0.8-1.5-0.9c-0.2,0-0.4-0.1-0.6-0.1c-0.6,0-1.3-0.1-1.9-0.5c-0.4-0.2-1-0.7-1.4-1.4c-0.5-1-0.4-2.2,0.2-3.1c0.5-0.8,1.4-1.4,2.4-1.6v-1.3c0-0.5,0.4-1,1-1c0.5,0,1,0.4,1,1V45c1.9,0.5,2.7,2,2.9,2.9c0.1,0.5-0.3,1-0.8,1.1c-0.5,0.1-1-0.3-1.1-0.8c-0.1-0.2-0.4-1.4-1.9-1.4c-0.7,0-1.4,0.3-1.8,0.8C29.2,48,29.2,48.5,29.4,48.9z"/><path fill="#e15e5a" d="M34.6,61.7c-2.2,0.5-4.6,0.5-6.9,0c-8.2-1.8-7.7-7.6-7.7-7.8c0,0,0-0.1,0-0.1c0-5.4,5.5-12.3,8.7-14.4h1.6l-1.2,1c-2.9,2.1-8,8.4-8,13.4c0,0,0,0.1,0,0.3c0,0.7,0,5.2,6.9,6.7c1,0.2,2.1,0.3,3.2,0.3c1.1,0,2.2-0.1,3.2-0.3c7.4-1.6,6.9-6.5,6.9-6.7l0-0.1v-0.2c0-5-5.2-11.3-8-13.4l-1.3-1h1.7c3.2,2.2,8.7,9,8.7,14.4v0.1C42.3,54.1,42.8,59.9,34.6,61.7z"/><path fill="#51bf9f" d="M49.8 13.9c-.6 1.2-1.9 3.2-4 4.1-2.1.9-4.4.6-5.8.3.6-1.2 1.9-3.2 4-4.1C46.1 13.3 48.5 13.6 49.8 13.9zM31.3 13.9c-1.3-.7-3.6-2.3-4.7-4.8-1-2.5-.5-5.2-.2-6.7 1.3.7 3.6 2.4 4.7 4.8C32.1 9.7 31.7 12.4 31.3 13.9zM24.9 22.6c-1.4.3-4 .7-6.2-.3-2.3-1-3.7-3.1-4.5-4.4 1.4-.4 4-.7 6.3.2C22.8 19.2 24.2 21.4 24.9 22.6z"/><path fill="#3da580" d="M44 14.2c-2.1.9-3.4 2.9-4 4.1 1.3.3 3.7.6 5.8-.3 2.1-.9 3.4-2.9 4-4.1C48.5 13.6 46.1 13.3 44 14.2zM45.4 17.1c-.8.3-1.7.5-2.7.5-.4 0-.7 0-1-.1.6-.9 1.6-1.9 2.8-2.5.8-.3 1.7-.5 2.7-.5.4 0 .7 0 1 .1C47.5 15.6 46.6 16.6 45.4 17.1zM31.1 7.2c-1-2.5-3.4-4.1-4.7-4.8-.4 1.5-.9 4.2.2 6.7 1 2.5 3.4 4.1 4.7 4.8C31.7 12.4 32.1 9.7 31.1 7.2zM30.6 12.3c-1.1-.8-2.4-2-3.1-3.6-.7-1.6-.6-3.3-.4-4.7 1.1.8 2.4 2 3.1 3.6C30.9 9.2 30.8 10.9 30.6 12.3zM20.5 18.2c-2.3-1-4.9-.6-6.3-.2.7 1.2 2.2 3.4 4.5 4.4 2.3 1 4.9.6 6.2.3C24.2 21.4 22.8 19.2 20.5 18.2zM22 22c-1.1 0-2-.2-2.9-.5-1.4-.6-2.4-1.7-3.2-2.8.4-.1.9-.1 1.3-.1 1.1 0 2 .2 2.9.5 1.4.6 2.5 1.8 3.2 2.8C22.9 22 22.4 22 22 22z"/><path fill="#2b2e63" d="M34.7,51.9c0.4,1,0.3,2.1-0.3,2.9c-0.5,0.8-1.4,1.3-2.3,1.5v1.3c0,0.5-0.4,1-1,1c-0.5,0-1-0.4-1-1v-1.3c-1.6-0.4-3-1.6-2.9-3.4c0-0.5,0.5-1,1-0.9c0.5,0,1,0.5,0.9,1c0,1,1.1,1.5,1.9,1.5c0,0,0,0,0,0h0c0.6,0,1.3-0.3,1.6-0.8c0.2-0.3,0.3-0.7,0.1-1.1c-0.2-0.5-0.9-0.8-1.5-0.9c-0.2,0-0.4-0.1-0.6-0.1c-0.6,0-1.3-0.1-1.9-0.5c-0.4-0.2-1-0.7-1.4-1.4c-0.5-1-0.4-2.2,0.2-3.1c0.5-0.8,1.4-1.4,2.4-1.6v-1.3c0-0.5,0.4-1,1-1c0.5,0,1,0.4,1,1V45c1.9,0.5,2.7,2,2.9,2.9c0.1,0.5-0.3,1-0.8,1.1c-0.5,0.1-1-0.3-1.1-0.8c-0.1-0.2-0.4-1.4-1.9-1.4c-0.7,0-1.4,0.3-1.8,0.8c-0.3,0.4-0.3,0.9-0.1,1.3c0.1,0.2,0.3,0.4,0.6,0.6c0.3,0.2,0.6,0.2,1.1,0.3c0.2,0,0.5,0,0.7,0.1C33.2,50.1,34.3,50.8,34.7,51.9z"/></svg>