<svg xmlns="http://www.w3.org/2000/svg" width="64" height="64"><path fill="#333" d="M2.781 3H17.22c.428 0 .781.328.781.813V9h-1V6H3v22h14v-3h1v7.156c0 .485-.353.844-.781.844H2.78C2.353 33 2 32.64 2 32.156V3.813C2 3.328 2.353 3 2.781 3Zm.75 1c-.28 0-.5.224-.5.5s.22.5.5.5.5-.224.5-.5-.22-.5-.5-.5zm4.5 0v1h4V4zM4 7h12v2H7.531c-.822 0-1.5.678-1.5 1.5v13c0 .822.678 1.5 1.5 1.5H16v2H4Zm3.531 3H33.5c.285 0 .5.214.5.5v13c0 .286-.215.5-.5.5H7.531a.489.489 0 0 1-.5-.5v-13c0-.286.215-.5.5-.5zm2.125 1a.5.5 0 0 0-.344.5c0 .418-.353.75-.78.75a.5.5 0 0 0-.5.5v8.5a.5.5 0 0 0 .5.5c.427 0 .78.332.78.75a.5.5 0 0 0 .5.5h21.47a.5.5 0 0 0 .5-.5.74.74 0 0 1 .75-.75.5.5 0 0 0 .5-.5v-8.5a.5.5 0 0 0-.5-.5.74.74 0 0 1-.75-.75.5.5 0 0 0-.5-.5H9.811a.5.5 0 0 0-.156 0zm.438 1H31c.177.51.52.856 1.031 1.031v7.938A1.574 1.574 0 0 0 31 22H10.094a1.623 1.623 0 0 0-1.063-1.063v-7.906c.518-.173.884-.517 1.063-1.031Zm10.437 1c-2.206 0-4 1.8-4 4s1.794 4 4 4 4-1.796 4-4c0-2.203-1.794-4-4-4zm0 1c1.666 0 3 1.34 3 3s-1.334 3-3 3a2.99 2.99 0 0 1-3-3c0-1.663 1.334-3 3-3zm0 .438a.277.277 0 0 0-.281.28v.25c-.56.119-1 .587-1 1.157 0 .664.592 1.156 1.281 1.156.417 0 .719.275.719.594 0 .32-.302.625-.719.625s-.687-.306-.687-.625c.006-.386-.6-.386-.594 0 0 .562.449.974 1 1.094v.312c-.006.387.6.387.594 0v-.312c.55-.12 1-.532 1-1.094 0-.603-.434-1.156-1.25-1.156h-.062c-.418 0-.688-.275-.688-.594 0-.315.28-.618.687-.625h.032c.407.012.687.31.687.625-.006.386.6.386.594 0 0-.57-.44-1.039-1-1.156v-.25c.002-.162-.152-.284-.313-.281zM12.031 16c-.547 0-1 .456-1 1s.453 1 1 1c.547 0 1-.452 1-1s-.453-1-1-1zm17 0c-.553 0-.968.448-.968 1s.415 1 .968 1a1 1 0 1 0 0-2zM10 29c-.826 0-1.531.674-1.531 1.5S9.174 32 10 32s1.5-.674 1.5-1.5S10.826 29 10 29Zm0 1c.293 0 .5.222.5.5s-.207.5-.5.5c-.293 0-.531-.222-.531-.5s.238-.5.531-.5Z" color="#000" font-family="Sans" font-weight="400" overflow="visible" style="line-height:normal;-inkscape-font-specification:Sans;text-indent:0;text-align:start;text-decoration-line:none;text-transform:none;block-progression:tb;marker:none"/></svg>