<svg xmlns="http://www.w3.org/2000/svg" enable-background="new 0 0 64 64" viewBox="0 0 64 64"><path d="M61.1 47.5c-.1-.4-.3-.7-.7-.8-.3-.2-.7-.2-1.1 0l-7.2 3c0 .1 0 .2 0 .4 0 1.9-1.5 3.4-3.4 3.4H34.9c-.4 0-.8-.4-.8-.8 0-.4.4-.8.8-.8h13.8c.8 0 1.5-.5 1.7-1.2.4-1.1-.3-2.1-1.3-2.3-4.2-.8-18.5-3.3-23.7-2.5-3.3.5-9.6 3.6-14.8 6.3-.6.3-.7 1-.4 1.5l3.1 5c.3.5.9.7 1.5.4 1.3-.7 2.5-1.3 3.3-1.5 2.7-.6 6.9 0 10.9.6 3.7.5 7.6 1.1 9.9.7 5.1-1 17.8-7.8 21.6-9.8C61 48.8 61.2 48.1 61.1 47.5zM7.2 53.9c-1.3.7-2.4 1.3-3.2 1.8-.5.3-.7.8-.5 1.4L6 63.3c.3.7 1.1.9 1.7.5 1-.8 2.4-1.8 3.8-2.8.5-.3.6-1 .3-1.5l-3.2-5.3C8.3 53.8 7.7 53.6 7.2 53.9zM50.8 5.3c-.3-.5-.9-.7-1.5-.4C48 5.6 46.8 6.2 46 6.3c-2.7.6-6.9 0-10.9-.6-3.7-.5-7.6-1.1-9.9-.7-5.1 1-17.8 7.8-21.6 9.8-.5.3-.8.9-.6 1.5.1.4.3.7.7.8.3.2.7.2 1.1 0l7.2-3c0-.1 0-.2 0-.4 0-1.9 1.5-3.4 3.4-3.4h13.9c.5 0 .8.4.8.8 0 .4-.4.8-.8.8H15.4c-.9 0-1.7.6-1.9 1.5-.1.9.5 1.8 1.4 2 4.3.8 18.5 3.3 23.7 2.5 3.3-.5 9.6-3.6 14.8-6.3.6-.3.7-1 .4-1.5L50.8 5.3zM56.4.2C55.3 1 53.9 2 52.5 3c-.5.3-.6 1-.3 1.5l3.2 5.3c.3.5.9.7 1.5.4 1.3-.7 2.4-1.3 3.3-1.8.5-.3.7-.8.5-1.4L58 .7C57.7 0 56.9-.2 56.4.2zM30 21.4c-5.8 0-10.6 4.7-10.6 10.6 0 5.8 4.7 10.5 10.6 10.5 5.8 0 10.6-4.7 10.6-10.5C40.5 26.2 35.8 21.4 30 21.4zM29.4 30.8c.2.2.5.3.9.5.5.2.8.3 1.1.5.3.2.5.3.7.5.2.2.4.4.5.7s.2.6.2.9c0 .6-.2 1.2-.6 1.6-.4.4-1 .6-1.7.7v1.1h-.9v-1.1c-.8-.1-1.4-.4-1.8-.8-.4-.5-.6-1.1-.6-1.9h1.6c0 .4.1.8.3 1 .2.2.5.4.9.4.3 0 .6-.1.8-.3.2-.2.3-.4.3-.7s-.1-.6-.3-.7c-.2-.2-.5-.3-.9-.5s-.8-.3-1.1-.5c-.3-.2-.6-.3-.8-.5-.2-.2-.4-.4-.5-.7-.1-.3-.2-.6-.2-1 0-.6.2-1.2.6-1.6s.9-.6 1.6-.7v-1.2h.9v1.2c.7.1 1.2.4 1.6.8.4.5.6 1.1.6 1.8H31c0-.4-.1-.8-.3-1C30.5 29.1 30.3 29 30 29c-.3 0-.6.1-.7.3C29.1 29.5 29 29.7 29 30 29.1 30.4 29.2 30.6 29.4 30.8z"/></svg>